<?xml version="1.0" encoding="UTF-8"?>
<svg id="_레이어_2" data-name="레이어 2" xmlns="http://www.w3.org/2000/svg" viewBox="0 0 480 300">
  <defs>
    <style>
      .cls-1 {
        stroke-width: 0px;
      }
    </style>
  </defs>
  <path class="cls-1" d="M377.49,184.26l-85.2-16.67,62.95-54.99-91.66,20.93,26.7-64.96-42.71,34.71,6.23-69.41-29.37,67.63-15.13-58.73-10.68,82.76-41.82-23.14c8.97,12.16,17.95,24.32,26.92,36.48,5.16,3.4,10.33,6.8,15.49,10.2,9.31-3.79,18.63-7.59,27.94-11.38l11.68,25.84,12.41-13.38,17.49,15.59c-.71.6-3.43-.48-4.14.11-5.05-4.17-8.07-6.68-13.12-10.85l-13.65,14.72-12.31-27.23-26.89,14.28-16.93-10.21-59.6,7.44,55.17,9.79-74.75,40.04,90.77-24.03,4.45,79.2,26.7-60.72,20.47,67.84,3.56-67.84,38.26,29.57-27.59-41.82,118.35-1.78Z"/>
</svg>