<?xml version="1.0" encoding="UTF-8"?>
<svg id="_레이어_2" data-name="레이어 2" xmlns="http://www.w3.org/2000/svg" viewBox="0 0 1100 750">
  <defs>
    <style>
      .cls-1 {
        fill: none;
        stroke: #fff;
        stroke-linecap: round;
        stroke-linejoin: round;
        stroke-width: 11.29px;
      }

      .cls-2 {
        stroke-width: 0px;
      }
    </style>
  </defs>
  <g id="_레이어_1-2" data-name=" 레이어 1-2">
    <g>
      <path class="cls-2" d="M664.08,255.96h-.03c-28.5-45.2-27.37-93-7.05-142.44-27.12,45.74-59.96,76.52-99.12,90.74-10.67,3.87-22.01,5.59-33.35,5.02-1.78-.08-3.56-.17-5.3-.2-20.29-.59-39.9-7.7-55.36-20.85-41.42-35.3-66.22-92.27-87.78-172.96,15.52,86.79,16.51,158.29-.9,210.18-5.56,16.59-15.83,31.18-29.43,42.15l-.17.11c-33.94,27.4-73,60.27-103.61,102.11-3.53,4.8-1.5,11.77,4.09,13.8,13.94,5.11,26.92,16.08,40.43,29.99,8.92,9.14,15.46,20.37,18.85,32.7,10.67,38.91-8.58,57.48-36.54,91.31,12.33-10.64,22.46-19.38,31.86-26.24,25.37-18.48,59.51-19.41,86.12-2.77l.31.2c7.34,4.6,13.85,10.41,19.13,17.3,40.21,52.68,49.49,124.55,38.97,208.6,18.4-82.45,46.08-144.35,84.17-183.46,10.24-10.52,23.59-17.47,37.95-20.68.23-.06.45-.08.65-.14l-1.78,1.21c61.77-16.31,106.06,2.48,139.47,42.92-15.07-26.16-25.17-46.33-28.33-66.51-2.82-17.97,1.24-36.48,11.2-51.69,14.5-22.12,23.53-49.04,26.44-81.4.17-3.39.23-6.72.2-10.04,20.23-61.26,72.21-109.51,144.64-149.26-79.57,39.7-183.86,55.3-195.68,40.35l-.03-.06ZM509.45,509.76c-78.02,2.48-141.76-61.26-139.27-139.27,2.26-70.65,59.79-128.19,130.44-130.44,78.02-2.48,141.76,61.26,139.27,139.27-2.26,70.65-59.79,128.19-130.44,130.44Z"/>
      <circle class="cls-2" cx="508.8" cy="371.16" r="63.71"/>
      <circle class="cls-2" cx="501.58" cy="373.42" r="140.52"/>
      <path class="cls-1" d="M364.03,381.86c87.98,40.52,192.97,31.57,268.28-12.58"/>
    </g>
  </g>
</svg>