<?xml version="1.0" encoding="UTF-8"?>
<svg id="_레이어_2" data-name="레이어 2" xmlns="http://www.w3.org/2000/svg" viewBox="0 0 480 300">
  <defs>
    <style>
      .cls-1 {
        stroke-width: 0px;
      }
    </style>
  </defs>
  <g id="_레이어_1-2" data-name=" 레이어 1-2">
    <path class="cls-1" d="M278.15,110.19h0c-9.53-15.12-9.15-31.1-2.36-47.63-9.07,15.3-20.05,25.59-33.15,30.34-3.56,1.3-7.37,1.86-11.15,1.68-.6-.03-1.18-.06-1.78-.07-6.79-.2-13.34-2.57-18.51-6.97-13.86-11.8-22.15-30.86-29.35-57.83,5.19,29.03,5.51,52.93-.3,70.28-1.86,5.55-5.3,10.42-9.85,14.09l-.06.05c-11.36,9.17-24.41,20.16-34.65,34.15-1.17,1.6-.5,3.93,1.37,4.62,4.65,1.71,9,5.38,13.52,10.03,2.97,3.06,5.18,6.82,6.3,10.93,3.56,13.01-2.87,19.22-12.22,30.54,4.12-3.55,7.52-6.48,10.65-8.77,8.48-6.18,19.9-6.49,28.79-.92l.1.07c2.45,1.54,4.63,3.49,6.4,5.79,13.45,17.62,16.55,41.65,13.04,69.76,6.14-27.56,15.41-48.27,28.14-61.35,3.43-3.52,7.89-5.85,12.69-6.92.07-.02.15-.04.22-.05l-.6.4c20.65-5.45,35.46.83,46.64,14.35-5.04-8.75-8.42-15.5-9.47-22.24-.94-6.01.41-12.21,3.75-17.29,4.85-7.39,7.87-16.4,8.84-27.22.06-1.14.07-2.25.07-3.36,6.76-20.49,24.14-36.62,48.37-49.91-26.6,13.28-61.48,18.49-65.43,13.49l-.02-.02ZM226.45,195.07c-26.08.83-47.4-20.49-46.57-46.57.76-23.62,19.99-42.87,43.61-43.61,26.08-.83,47.41,20.49,46.57,46.57-.76,23.62-19.99,42.87-43.61,43.61Z"/>
    <circle class="cls-1" cx="226.23" cy="148.72" r="21.31"/>
  </g>
</svg>