<?xml version="1.0" encoding="UTF-8"?>
<svg xmlns="http://www.w3.org/2000/svg" xmlns:xlink="http://www.w3.org/1999/xlink" width="480px" height="300px" viewBox="0 0 480 300" version="1.1">
<g id="surface1">
<path style=" stroke:none;fill-rule:nonzero;fill:rgb(0%,0%,0%);fill-opacity:1;" d="M 278.148438 110.191406 C 268.621094 95.070312 269 79.089844 275.789062 62.558594 C 266.71875 77.859375 255.738281 88.148438 242.640625 92.898438 C 239.078125 94.199219 235.269531 94.761719 231.488281 94.578125 C 230.890625 94.550781 230.308594 94.519531 229.710938 94.511719 C 222.921875 94.308594 216.371094 91.941406 211.199219 87.539062 C 197.339844 75.738281 189.050781 56.679688 181.851562 29.710938 C 187.039062 58.738281 187.359375 82.640625 181.550781 99.988281 C 179.691406 105.539062 176.25 110.410156 171.699219 114.078125 L 171.640625 114.128906 C 160.28125 123.300781 147.230469 134.289062 136.988281 148.28125 C 135.820312 149.878906 136.488281 152.210938 138.359375 152.898438 C 143.011719 154.609375 147.359375 158.28125 151.878906 162.929688 C 154.851562 165.988281 157.058594 169.75 158.179688 173.859375 C 161.738281 186.871094 155.308594 193.078125 145.960938 204.398438 C 150.078125 200.851562 153.480469 197.921875 156.609375 195.628906 C 165.089844 189.449219 176.511719 189.140625 185.398438 194.710938 L 185.5 194.78125 C 187.949219 196.320312 190.128906 198.269531 191.898438 200.570312 C 205.351562 218.191406 208.449219 242.21875 204.941406 270.328125 C 211.078125 242.769531 220.351562 222.058594 233.078125 208.980469 C 236.511719 205.460938 240.96875 203.128906 245.769531 202.058594 C 245.839844 202.039062 245.921875 202.019531 245.988281 202.011719 L 245.390625 202.410156 C 266.039062 196.960938 280.851562 203.238281 292.03125 216.761719 C 286.988281 208.011719 283.609375 201.261719 282.558594 194.519531 C 281.621094 188.511719 282.96875 182.308594 286.308594 177.230469 C 291.160156 169.839844 294.179688 160.828125 295.148438 150.011719 C 295.210938 148.871094 295.21875 147.761719 295.21875 146.648438 C 301.980469 126.160156 319.359375 110.03125 343.589844 96.738281 C 316.988281 110.019531 282.109375 115.230469 278.160156 110.230469 L 278.140625 110.210938 Z M 226.449219 195.070312 C 200.371094 195.898438 179.050781 174.578125 179.878906 148.5 C 180.640625 124.878906 199.871094 105.628906 223.488281 104.890625 C 249.570312 104.058594 270.898438 125.378906 270.058594 151.460938 C 269.300781 175.078125 250.070312 194.328125 226.449219 195.070312 Z M 226.449219 195.070312 "/>
<path style=" stroke:none;fill-rule:nonzero;fill:rgb(0%,0%,0%);fill-opacity:1;" d="M 247.539062 148.71875 C 247.539062 160.488281 238 170.03125 226.230469 170.03125 C 214.460938 170.03125 204.921875 160.488281 204.921875 148.71875 C 204.921875 136.949219 214.460938 127.410156 226.230469 127.410156 C 238 127.410156 247.539062 136.949219 247.539062 148.71875 Z M 247.539062 148.71875 "/>
</g>
</svg>
