<?xml version="1.0" encoding="UTF-8"?>
<svg id="_레이어_2" data-name="레이어 2" xmlns="http://www.w3.org/2000/svg" viewBox="0 0 1100 750">
  <defs>
    <style>
      .cls-1 {
        stroke-width: 0px;
      }
    </style>
  </defs>
  <path class="cls-1" d="M660.75,119.21c44.55-16.05,104.11-35.31,149.69-47.95,73.11-20.28,99.8,12.37,77.52,77.03-12.93,37.53-23.24,69.34-36.99,105.07-14.8,38.45-20.15,50.66,15.54,82.85,32.16,29.01,68.76,62.99,94.92,88.14,48.63,46.74,42.25,106.28-56.21,108.43-81.92,1.79-148.24.42-193.07.32-28.92-.06-46.73,1.15-60.1,5.23-8.51,2.59-15.22,6.35-21.86,11.68-5.7,4.57-11.34,10.3-18.02,17.44-28.43,30.41-67.7,78.18-97.15,111.34-65.29,73.52-101.74,59.36-132.8-28.44-11.59-32.75-24.67-68.14-35.04-100.59-18.01-56.36-21.09-57.31-70.14-72.62-38.04-11.88-68.14-20.94-125.42-39.87-47.7-15.76-62.39-54.94-7.45-88.03,50.46-30.4,68.45-41.66,99.05-60.63,22.95-14.23,29.25-30.05,31.83-50.29,5.88-46.06,8.09-70.98,14.43-143.89,6.95-79.92,55.92-85.71,123.82-48.32,43.92,24.18,103.35,57.84,126.05,70.25,63.52,34.72,53.07,27.47,121.4,2.85Z"/>
</svg>