<?xml version="1.0" encoding="UTF-8"?>
<svg id="_레이어_2" data-name="레이어 2" xmlns="http://www.w3.org/2000/svg" viewBox="0 0 480 300">
  <defs>
    <style>
      .cls-1 {
        stroke-width: 0px;
      }
    </style>
  </defs>
  <path class="cls-1" d="M257.61,128.72l3.93-49.46c.39-4.92,3.58-9.17,8.19-10.9.99-.37,2.05-.77,3.2-1.22,13.27-5.08,30.94-11.37,44.48-15.44,21.73-6.53,29.66,3.98,23.04,24.79-3.85,12.08-9.05,26.21-12.44,37.95-2.84,9.86-1.45,14.99,4.26,20.8,9.38,9.51,22.23,22.03,30,30.12,14.45,15.05,12.55,34.21-16.7,34.91-24.35.58-44.05.13-57.38.1-8.6-.02-13.89.37-17.86,1.68-2.53.84-4.52,2.04-6.5,3.76-1.69,1.47-3.37,3.32-5.35,5.61-8.45,9.79-20.12,25.17-28.87,35.84-19.4,23.67-30.23,19.11-39.47-9.16-3.44-10.54-7.15-22-10.41-32.38-3.54-11.23-5.35-18.14-19.93-23.07-11.31-3.82-21.17-7.05-38.19-13.14-14.17-5.08-18.54-17.69-2.21-28.34,14.99-9.78,19-12.17,28.1-18.28,6.82-4.58,9.61-9.96,10.42-16.47,2.23-17.91,1.92-16.64,4.08-42.05,2.37-27.73,17.2-32.81,37.38-20.78,16.82,10.04,21.8,13.96,31.73,19.78,2.77,1.63,4.83,4.25,5.76,7.34l17.43,58.34c.54,1.79,3.15,1.52,3.3-.35h.02Z"/>
</svg>