<?xml version="1.0" encoding="UTF-8"?>
<svg id="_레이어_2" data-name="레이어 2" xmlns="http://www.w3.org/2000/svg" viewBox="0 0 1100 750">
  <defs>
    <style>
      .cls-1 {
        stroke-width: 0px;
      }
    </style>
  </defs>
  <path class="cls-1" d="M763.01,247.11c-38.4-53.59-92.34-91.5-151.86-106.75-19.03-4.87-38.88-.74-54.45,11.35-15.67,12.16-24.65,30.5-24.65,50.32v472.39c0,19.82,8.99,38.16,24.65,50.32,11.29,8.76,24.82,13.34,38.67,13.34,5.25,0,10.55-.66,15.78-2,59.52-15.24,113.46-53.15,151.86-106.75,38.65-53.93,59.93-121.8,59.93-191.11s-21.28-137.18-59.93-191.11Z"/>
  <path class="cls-1" d="M543.3,25.27c-15.57-12.08-35.41-16.22-54.45-11.35-59.53,15.24-113.46,53.15-151.87,106.75-38.65,53.93-59.93,121.8-59.93,191.11s21.28,137.18,59.93,191.11c38.4,53.59,92.34,91.5,151.87,106.75,5.23,1.34,10.53,2,15.78,2,13.84,0,27.38-4.58,38.67-13.34,15.67-12.16,24.65-30.5,24.65-50.32V75.59c0-19.82-8.99-38.16-24.65-50.32Z"/>
</svg>