<?xml version="1.0" encoding="UTF-8"?>
<svg id="_레이어_2" data-name="레이어 2" xmlns="http://www.w3.org/2000/svg" viewBox="0 0 480 300">
  <defs>
    <style>
      .cls-1 {
        stroke-width: 0px;
      }
    </style>
  </defs>
  <path class="cls-1" d="M320.13,123.48h0c-7.8-19.26-21.51-34.86-38.62-43.94-.02-.02-.05-.02-.07-.04-4.21-2.21-8.96-2.83-13.49-1.82-1.34.3-2.66.74-3.95,1.31-5.7,2.56-9.81,7.52-11.28,13.59l-8.31,34.4-12.86-72.43c-1.09-6.15-4.89-11.34-10.42-14.25-5.5-2.89-11.88-3.08-17.52-.52-17.63,8.01-32.28,22.74-41.24,41.48-9.02,18.87-11.89,41.09-8.07,62.6s14.16,41.39,29.12,56c10.99,10.72,24.13,18.31,38.04,22.14l-3.69,15.29c-1.46,6.07-.07,12.35,3.83,17.23,2.81,3.52,6.62,5.92,10.86,6.95,1.61.39,3.28.58,4.98.56,19.36-.26,38.69-7.88,54.42-21.46,15.83-13.66,27.37-32.87,32.5-54.11,5.13-21.23,3.63-43.6-4.22-62.97Z"/>
</svg>