<?xml version="1.0" encoding="UTF-8"?>
<svg id="_레이어_2" data-name="레이어 2" xmlns="http://www.w3.org/2000/svg" viewBox="0 0 1100 750">
  <defs>
    <style>
      .cls-1 {
        stroke-width: 0px;
      }
    </style>
  </defs>
  <path class="cls-1" d="M573.95,86.82c-172.19,0-311.78,139.59-311.78,311.78s139.59,311.78,311.78,311.78,311.78-139.59,311.78-311.78S746.14,86.82,573.95,86.82ZM813.96,345.86c-48.45,60.24-125.04,39.57-160.62-15.06-12.64-19.41-18.45-42.41-18.23-65.56.84-88.66-22.61-139.64-72.28-149.94,162.68-26.23,320.91,141.85,251.13,230.56ZM656.37,400.99c0,42.88-34.76,77.65-77.65,77.65s-77.65-34.76-77.65-77.65,34.76-77.65,77.65-77.65,77.65,34.76,77.65,77.65ZM602.13,167.07c39.63,66.38-6.39,130.99-69.98,145.35-22.59,5.1-46.18,2.55-67.81-5.71-82.84-31.63-138.78-27.37-165.72,15.61,31.98-161.65,244.6-251.54,303.51-155.26ZM356.44,301.67c75.04-18.59,123.46,44.24,118.69,109.26-1.7,23.1-11,44.92-25.2,63.21-54.37,70.04-66.58,124.8-33.3,163.09-145.34-77.66-169.45-307.23-60.18-335.56ZM416.75,576.89c5.51-77.11,80.23-103.75,140.59-79.11,21.44,8.75,39.32,24.34,52.33,43.5,49.81,73.35,98.12,101.89,144.81,82.07-118.77,114.23-344.56,66.22-337.74-46.46ZM696.43,604.72c-71.63-29.07-73.88-108.36-31.8-158.16,14.95-17.69,35.3-29.87,57.54-36.33,85.16-24.71,127.22-61.83,122.8-112.37,71.94,148.25-43.5,348.16-148.55,306.85Z"/>
  <path class="cls-1" d="M809.08,691.63c-15.68-32.96-12.63-68.67,11.65-107.49l-121,97.34c54.15-22.45,88.02-15.27,109.35,10.15Z"/>
  <path class="cls-1" d="M338.67,691.63c15.68-32.96,12.63-68.67-11.65-107.49l121,97.34c-54.15-22.45-88.02-15.27-109.35,10.15Z"/>
  <path class="cls-1" d="M898.82,207.51c-26.11,25.5-35.61,60.06-26.26,104.88l-79.85-133.19c43.04,39.8,77.3,44.78,106.11,28.31Z"/>
  <path class="cls-1" d="M460.56,39.62c2.9,36.39-12.68,68.66-49.2,96.28l147.75-47.82c-58.6,1.68-87.68-17.11-98.55-48.46Z"/>
  <path class="cls-1" d="M201.18,361.98c34.46,12.04,57.7,39.32,68.22,83.88l15.9-154.48c-22.13,54.29-51.05,73.31-84.12,70.6Z"/>
</svg>