<?xml version="1.0" encoding="UTF-8"?>
<svg id="_레이어_2" data-name="레이어 2" xmlns="http://www.w3.org/2000/svg" viewBox="0 0 480 300">
  <defs>
    <style>
      .cls-1 {
        stroke-width: 0px;
      }
    </style>
  </defs>
  <g id="_레이어_1-2" data-name=" 레이어 1-2">
    <g>
      <path class="cls-1" d="M239.19,120.56c-16.7,14.3-37.02,4.5-44.09-12.64-2.52-6.09-2.94-12.82-1.66-19.28,4.88-24.73,1.01-40.2-12.33-45.69,46.84,1.2,82.24,56.47,58.08,77.6h0Z"/>
      <path class="cls-1" d="M221.5,148.47c4.29,21.56-14.19,34.48-32.59,32.27-6.54-.79-12.61-3.71-17.62-7.99-19.18-16.36-34.57-20.55-45.88-11.6,23.97-40.26,89.49-44.08,96.1-12.67Z"/>
      <path class="cls-1" d="M246.65,166.07c21.08,6.21,23.94,28.59,13.43,43.85-3.73,5.43-9.15,9.44-15.26,11.89-23.4,9.38-34.26,21.06-31.6,35.23-24.51-39.93,2.55-99.72,33.43-90.98h0Z"/>
      <path class="cls-1" d="M265.52,154.61c7.33-20.73,29.82-22.39,44.51-11.09,5.22,4.01,8.94,9.64,11.06,15.87,8.13,23.87,19.21,35.33,33.51,33.42-41.17,22.36-99.45-7.84-89.09-38.21h0Z"/>
      <path class="cls-1" d="M259.31,122.4c-13.4-17.42-2.56-37.2,14.91-43.37,6.21-2.19,12.95-2.26,19.34-.65,24.44,6.17,40.1,3.1,46.27-9.94-3.64,46.71-60.68,79.18-80.53,53.96h0Z"/>
      <circle class="cls-1" cx="244.29" cy="142.01" r="15.96"/>
    </g>
  </g>
</svg>