<?xml version="1.0" encoding="UTF-8"?>
<svg id="_레이어_2" data-name="레이어 2" xmlns="http://www.w3.org/2000/svg" viewBox="0 0 1100 750">
  <defs>
    <style>
      .cls-1 {
        stroke: #000;
        stroke-miterlimit: 10;
      }
    </style>
  </defs>
  <path class="cls-1" d="M224.27,182.84c-27.22-94.8-1.79-153.93,51.77-165.57,61.22-13.31,126.52,19.11,248.53,56.51,71.85,22.02,125.6,40.23,185.55,49.6,60.42,9.44,126.94,9.84,176.58,9.47,153.23-1.15,40.38,259.81-10.22,356.81-24.61,47.18-43.46,74-51.34,89.18-8.07,15.55-7.13,26.05,13.38,25.48,28.5-.79,53.94-12.24,71.94-18.51,37.71-13.13,28.98,32.21,14.56,50.81-15.35,19.8-41.92,40.65-103.37,63.38-85.51,31.63-193.55,40.16-293.74,33.83-96.34-6.08-237.07-32.68-299.08-65.27-70.57-37.09-90.87-73.56-92.82-111.03-2.49-47.73,25.62-63.98,44.39-58.4,20.42,6.07,31.95,24,74.27,42.58,28.54,12.53,42.32,5.93,45.33-10.74,3.35-18.57,2.62-62.17-9.41-121.19-16.3-79.98-32.37-108.76-66.31-226.95Z"/>
</svg>