<?xml version="1.0" encoding="UTF-8"?>
<svg id="_레이어_2" data-name="레이어 2" xmlns="http://www.w3.org/2000/svg" viewBox="0 0 480 300">
  <defs>
    <style>
      .cls-1 {
        stroke: #000;
        stroke-miterlimit: 10;
        stroke-width: .77px;
      }
    </style>
  </defs>
  <path class="cls-1" d="M283.43,81.84c-1.25-3.18,1.24-6.66,4.64-6.34.08,0,.15.02.23.02,14.96,2.07,30.75,2.17,42.84,2.07,41.47-.34,10.93,77.69-2.77,106.69-6.66,14.11-11.77,22.13-13.89,26.66-2.13,4.54-1.93,7.79,3.62,7.62,7.71-.24,14.6-3.66,19.47-5.53,10.21-3.93,7.84,9.63,3.94,15.2-4.15,5.92-11.35,12.15-27.97,18.95-23.14,9.46-52.39,12.01-79.5,10.11-26.07-1.82-64.16-9.77-80.95-19.52-19.1-11.09-24.59-21.99-25.13-33.2-.67-14.27,6.93-19.13,12.02-17.46,5.52,1.81,8.65,7.18,20.1,12.73,7.73,3.75,11.45,1.78,12.27-3.21.9-5.55.71-18.59-2.55-36.24-4.41-23.92-8.76-32.52-17.94-67.87-7.37-28.35-.48-46.03,14.01-49.51,16.16-3.88,33.37,5.25,64.87,16.07.19.06,2.42.89,3.31,1.87,4.72,5.26,16.94,21.67,22.43,29.1,1.75,2.36,2.39,5.38,1.75,8.25l-6.61,29.85c-.47,2.14-.24,4.38.66,6.39l14.66,32.47c.58,1.84,3.25,1.62,3.52-.29l2.33-37.35c.09-1.53.54-3.02,1.29-4.36l13.16-23.37c1.51-2.67,1.72-5.88.6-8.74l-4.38-11.09h0v.02Z"/>
</svg>