<?xml version="1.0" encoding="UTF-8"?>
<svg id="_레이어_2" data-name="레이어 2" xmlns="http://www.w3.org/2000/svg" viewBox="0 0 480 300">
  <defs>
    <style>
      .cls-1 {
        stroke-width: 0px;
      }
    </style>
  </defs>
  <path class="cls-1" d="M322.71,126.11c-1.55-28.08-28.9-54.99-57.02-66.17,1.51-2.08,2.41-4.64,2.41-7.41,0-6.97-5.65-12.63-12.63-12.63s-12.63,5.65-12.63,12.63c0,.71.06,1.4.17,2.07-2.93,6.81-5.87,13.62-8.8,20.43,6.5,9.17,13,18.34,19.5,27.5-6.55,5.78-13.1,11.57-19.65,17.35,5.33,4.98,10.65,9.97,15.98,14.95-4.58,7.14-9.17,14.28-13.75,21.42,2.95-6.81,5.89-13.62,8.84-20.44-6.4-5.14-12.79-10.27-19.19-15.41,7.14-6.45,14.28-12.9,21.42-19.35-6.91-8.26-13.82-16.52-20.73-24.77,3.45-7.23,6.91-14.46,10.36-21.69.11-.67.17-1.36.17-2.07,0-6.97-5.65-12.63-12.63-12.63s-12.63,5.65-12.63,12.63c0,2.73.87,5.26,2.34,7.32-28.33,11.13-55.43,38.1-56.96,66.26-8.19,16.09-12.88,33.97-12.88,51.49,0,52.93,42.8,82.5,95.59,82.5s95.59-29.57,95.59-82.5c0-17.52-4.69-35.4-12.88-51.49Z"/>
</svg>