<?xml version="1.0" encoding="UTF-8"?>
<svg id="_레이어_2" data-name="레이어 2" xmlns="http://www.w3.org/2000/svg" viewBox="0 0 1100 750">
  <defs>
    <style>
      .cls-1 {
        stroke-width: 0px;
      }
    </style>
  </defs>
  <path class="cls-1" d="M1021.1,374.83c-1.41,27.02-34.23,48.94-46.38,73.99-11.92,24.69-3.14,60.35-22.49,82.46-18.52,20.94-60.94,22.77-84.51,40.72-22.48,16.83-28.24,53.64-50.54,67.33-21.12,12.86-59.88.54-83.29,10.3-22.94,9.25-26.52,42.04-46.74,48.09-20.3,5.76-61.35-15.72-84.93-13.01-23.61,2.6-28.01,29.67-52.23,29.11-25.78-.56-67.9-28.47-92.43-31.95-26.63-3.63-42.45,16.4-69.02,9.77-28.95-6.94-58.82-39.59-81.35-49.33-24.59-10.27-51.8.55-73.08-12.54-22.84-13.9-31.25-49.42-46.72-65.97-16.93-17.64-46.17-20.14-58.29-40.28-13.05-21.23-4.45-54.87-11.57-78.34-7.17-23.81-36.31-44.59-38.62-70.01-2.31-25.42,28.45-46.21,37.83-70.01,9.2-23.47-4.62-57.05,12.81-78.26,16.77-20.12,61.24-22.66,84.15-40.29,21.9-16.54,24.22-52,46.98-65.91,21.62-13.11,64.33-2.36,88.9-12.65,24.06-9.76,26.65-42.39,48.91-49.38,22.29-6.67,67.39,13.27,93.13,9.6,25.7-3.52,31.45-31.47,58.37-32.09,28.52-.62,73.37,26.41,100.08,28.97,28.91,2.67,47.78-18.89,76.6-13.17,31.28,6,61.37,38.81,85.16,48.04,25.9,9.74,56.46-2.66,78.36,10.19,23.42,13.68,28.96,50.56,43.7,67.39,16.14,17.95,46.58,19.76,56.65,40.71,10.81,22.14-2.41,57.84,1.78,82.54,4.19,25.05,30.18,46.96,28.76,73.98Z"/>
  <path class="cls-1" d="M1021.15,374.83c-.84,14.05-9.56,25.91-18.1,36.49-8.65,10.71-18.38,20.68-25.51,32.52-11.05,18.05-9.01,40.09-13.07,60.15-1.93,10.12-5.6,20.29-12.68,27.99-7.11,7.67-16.75,12.31-26.32,16.11-19.08,7.68-40.13,11.53-57.07,23.7-22.72,16.76-26.43,48.91-48.62,66.14-5.6,4.21-12.5,6.19-19.35,7.14-13.73,1.85-27.6.48-41.38.81-6.87.16-13.79.66-20.39,2.5-6.64,1.77-12.6,5.49-17.24,10.54-9.52,10.06-14.28,23.7-24.33,33.39-2.57,2.35-5.54,4.37-8.88,5.49-3.34,1.17-6.89,1.4-10.36,1.31-24.48-.5-58.51-18.99-80.93-12.9-13.74,3.92-20.62,17.89-32.73,24.58-6.13,3.5-13.5,4.01-20.33,2.82-20.5-3.74-38.93-14.06-57.98-22-12.54-5.21-25.7-11.13-39.59-9.57-13.83,1.21-26.16,8.65-39.85,10.71,0,0-2.59.29-2.59.29l-1.29.15-1.3.03-2.6.05c-.43.02-.87,0-1.3-.05-10.85-.62-21.11-5.11-30.42-10.44-19.48-11.17-35.84-27.03-55.37-38.07-10.65-5.88-23.02-7.04-34.99-7.27-13.66-.32-28.14.32-40.56-6.35-18.55-10.43-26.75-31.38-36.61-49.12-7.19-13.58-13.97-22.25-27.77-29.56-17.9-9.84-40.32-16-46.84-37.87-4.25-13.25-3.76-27.34-4.16-41.08-.31-10.28-.64-20.78-4.1-30.56-6.21-16.23-18.97-28.6-28.18-43.13-7.56-11.43-13.03-25.78-7.61-39.25,4.89-13.07,14.53-23.47,22.79-34.44,6.16-8.18,12.39-16.78,14.7-26.91,4.52-20.22-2.08-41.73,4.9-61.65,5.92-17.31,24.28-24.52,40.16-30.08,12.99-4.55,26.37-8.23,38.76-14.27,13.37-6.17,21.74-15.71,28.37-28.6,8.13-14.95,13.71-32.69,28.12-43.01,8.67-6.02,19.55-7.42,29.8-8.18,13.77-.92,27.61-.2,41.34-1.46,6.82-.65,13.68-1.76,19.98-4.43,13.1-5.31,20.1-18.36,27.37-29.69,5.48-8.68,12.54-17.68,23.08-20.04,10.27-2.18,20.84-.23,31,1.51,13.56,2.52,26.93,6.03,40.58,7.95,28.73,4.04,34.6-3.96,54.26-21.74,5.31-4.48,11.58-8.09,18.51-9.24,13.86-2.09,27.65,2.63,40.64,6.91,19.55,6.62,38.3,15.92,58.48,20.46,13.56,3.16,27.41-.21,40.18-5.04,12.83-4.81,26.5-9.71,40.43-7.44,13.82,2.07,26.27,8.93,37.87,16.36,11.6,7.49,22.46,16.05,34.02,23.56,5.78,3.72,11.77,7.19,18.25,9.42,35.07,10.68,70.5-11.57,93.92,28.33,7.24,11.83,11.83,24.96,18.24,37.14,3.19,6.08,7.09,11.87,12.51,16.18,5.33,4.35,11.45,7.62,17.63,10.65,6.18,3.05,12.51,5.85,18.41,9.46,13.35,7.83,19.18,18.76,19.88,34.23,1.15,20.7-4.98,41.22-2.83,61.91.78,6.86,3.22,13.41,6.22,19.59,8.81,18.29,23.72,35.47,22.83,56.86h0ZM1021.05,374.83c.85-21.37-14.09-38.49-22.9-56.77-3.02-6.19-5.48-12.76-6.27-19.65-2.18-20.69,3.91-41.22,2.74-61.92-.75-15.21-6.35-26.12-19.76-33.92-5.88-3.59-12.2-6.38-18.4-9.42-6.19-3.03-12.34-6.3-17.73-10.68-5.47-4.32-9.43-10.19-12.65-16.29-6.45-12.22-11.06-25.33-18.29-37.08-23.22-39.54-58.72-17.25-93.68-27.91-6.59-2.25-12.64-5.75-18.44-9.47-11.59-7.5-22.46-16.04-34.06-23.5-11.51-7.35-23.89-14.14-37.54-16.15-13.8-2.2-27.19,2.68-39.96,7.45-12.87,4.88-27.01,8.26-40.72,5.07-20.27-4.57-39.01-13.86-58.61-20.51-12.85-4.25-26.48-8.91-40.15-6.88-14.13,2.3-22.92,14.34-33.51,22.81-5.43,4.34-11.87,7.62-18.81,8.63-6.92,1.06-13.91.44-20.75-.47-13.69-1.92-27.07-5.44-40.63-7.96-12.98-2.07-28.31-5.5-39.79,2.67-11.21,8.36-16.18,22.04-24.88,32.65-4.31,5.42-9.74,10.17-16.24,12.83-6.44,2.73-13.39,3.84-20.26,4.49-13.77,1.26-27.6.54-41.36,1.45-10.16.74-20.8,2.1-29.34,8.01-14.26,10.25-19.74,27.84-27.85,42.69-6.7,13.06-15.31,22.73-28.79,28.94-12.46,6.05-25.85,9.72-38.87,14.26-20.69,7.27-39.03,15.03-42.2,39.53-2.57,17,1.3,34.62-2.49,51.59-2.34,10.21-8.65,18.93-14.85,27.13-8.26,10.92-17.87,21.29-22.75,34.26-5.32,13.29.02,27.48,7.52,38.79,9.15,14.48,21.99,26.97,28.19,43.25,3.48,9.83,3.81,20.4,4.1,30.7.37,13.7-.12,27.77,4.1,40.96,6.46,21.72,28.82,27.9,46.63,37.7,13.92,7.37,20.66,16.13,27.88,29.7,9.84,17.67,18.05,38.56,36.53,48.93,12.36,6.61,26.77,5.95,40.39,6.26,12.02.2,24.48,1.38,35.2,7.28,19.57,11.01,35.94,26.86,55.43,38.01,8.9,5.06,18.6,9.41,28.9,10.22,1.94.23,4.46.12,6.42.07,0,0,1.28-.15,1.28-.15l2.55-.29c13.65-2.09,26-9.54,39.88-10.76,14-1.6,27.31,4.34,39.93,9.58,12.68,5.43,25.11,11.46,38.02,16.29,12.46,4.42,27.16,9.73,39.65,2.84,6.02-3.29,10.68-8.5,15.62-13.3,7.59-7.76,16.43-13.14,27.59-12.75,17.36.57,33.85,7,50.55,10.9,9.87,2.18,20.43,5,30.35,2.03,9.92-3.55,15.45-13.25,20.86-21.75,5.44-8.69,11.11-17.99,20.1-23.49,19.47-11.47,49.28-3.92,71.46-7.32,15.17-1.72,24.66-9.61,32.77-22.21,11.3-17.02,18.01-38.19,35-50.81,17-12.18,38.12-16.03,57.21-23.67,9.55-3.77,19.12-8.37,26.2-15.98,7.04-7.65,10.7-17.73,12.63-27.81,4.09-20.06,2.09-42.16,13.18-60.21,7.16-11.85,16.89-21.8,25.57-32.5,8.55-10.55,17.26-22.38,18.12-36.4h0Z"/>
</svg>