<?xml version="1.0" encoding="UTF-8"?>
<svg id="_레이어_2" data-name="레이어 2" xmlns="http://www.w3.org/2000/svg" viewBox="0 0 480 300">
  <defs>
    <style>
      .cls-1 {
        stroke-width: 0px;
      }
    </style>
  </defs>
  <path class="cls-1" d="M393.73,149.32c-.49,8.87-9.77,16.31-13.72,24.54-3.86,8.11-2.34,19.16-8.71,26.42-6.07,6.88-18.85,8.46-26.56,14.35-7.33,5.52-10.16,16.43-17.51,20.93-6.94,4.23-18.73,1.49-26.33,4.69-7.39,3.04-9.43,12.42-16.13,14.4-6.63,1.89-19.08-3.74-26.8-2.86-7.62.85-9.97,8.31-17.98,8.13-8.38-.18-21.41-7.92-29.56-9.07-8.72-1.2-14.44,3.99-23.18,1.82-9.42-2.28-19.11-11.66-26.63-14.86-8.13-3.37-16.81-1.06-23.78-5.36-7.45-4.56-10.81-15.12-15.92-20.55-5.56-5.79-14.3-7.52-18.29-14.13-4.26-6.97-2.51-17.41-4.92-25.12-2.41-7.82-10.7-14.87-11.43-23.21-.67-7.58,7.66-13.99,10.12-21.14,2.43-7.09-1.51-16.72,3.25-23.21,4.62-6.21,17.16-7.9,23.66-13.46,6.21-5.24,6.99-15.39,13.77-19.93,6.42-4.29,18.72-2.31,25.92-5.85,6.99-3.36,8.18-12.79,14.69-15.41,6.4-2.51,19.08,2.1,26.45.39,7.3-1.64,8.58-9.87,15.98-10.73,1.42-.16,4.45,8.18,7.2,16.13,1.46,3.85,10.37,9.04,10.92,13.96.51,4.21-6.93,8.07-7.08,12.67-.13,4.38,6.87,9.3,6.15,13.76-.7,4.56-9.02,9.03-9.84,13.32-.9,4.75,5.72,8.5,5.2,12.53-.63,5.05-8.18,11.99-7.14,15.12,1.25,3.79,8.96.34,14.28-.08.74-.06,6.03-.28,10.49-7.5,2.2-3.56-1.79-9.39.55-13.96,2-3.88,10.63-6.48,12.5-10.78,1.8-4.05-3.43-9.76-2.25-13.9,1.21-4.15,9.2-6.74,9.93-10.78.82-4.3-6.16-10.12-6.28-13.99-.1-4.55,7.2-6.85,6.81-10.37-.54-6.49-9.7-15.07-8.83-15.71,3.68-2.24,17.56,4.78,28.23,7.16,7.39,1.63,15.14-2.54,24.31.86,8.04,2.93,14.22,12.87,20.86,16.95,6.37,3.83,15.56,2.1,21.16,6.75,5.56,4.61,6.04,15.1,9.99,20.35,4.17,5.45,12.73,6.39,15.73,12.35,3.28,6.42.15,16.67,1.79,23.43,1.78,7.38,9.31,13.49,8.9,20.97h0Z"/>
</svg>