<?xml version="1.0" encoding="UTF-8"?>
<svg id="_레이어_2" data-name="레이어 2" xmlns="http://www.w3.org/2000/svg" viewBox="0 0 1100 750">
  <defs>
    <style>
      .cls-1 {
        stroke-width: 0px;
      }
    </style>
  </defs>
  <path class="cls-1" d="M108,429.8c39.79,63.83,185.8,110.95,314.88,36.67,39.99-24.86,78.91-72.42,101.61-71.34,14.91,1.82,21.9,33.86,25.15,80.17l-.06,12.79c.13-2.46.28-4.88.43-7.27.15,2.39.29,4.81.43,7.27l-.06-12.79c3.25-46.31,10.24-78.36,25.15-80.17,22.7-1.08,61.61,46.48,101.61,71.34,129.08,74.28,275.08,27.16,314.88-36.67,11.6-18.6,10.58-42.36-2.12-60.23-38.73-54.49-152.59-98.6-285.05-48.47-13.38,5.07-26.12,11.69-38.21,19.35-22.65,14.36-67.35,39.87-87.86,31.98-23.78-6.49-29.41-114.58-29.41-114.58h0s-4.32,108.09-28.1,114.58c-20.51,7.89-65.21-17.62-87.86-31.98-12.09-7.66-24.82-14.29-38.21-19.35-132.47-50.13-246.32-6.01-285.05,48.47-12.7,17.87-13.71,41.63-2.12,60.23Z"/>
  <path class="cls-1" d="M254.37,580.86c26.62,72.09,124.27,125.31,210.6,41.42,26.75-28.08,52.78-81.8,67.96-80.57,9.97,2.05,14.65,38.24,16.82,90.55l-.04,14.44c.09-2.78.18-5.51.28-8.21.1,2.7.2,5.43.28,8.21l-.04-14.44c2.18-52.31,6.85-88.5,16.82-90.55,15.18-1.22,41.21,52.5,67.96,80.57,86.33,83.89,183.99,30.68,210.6-41.42,7.76-21.01,7.08-47.84-1.42-68.02-25.91-61.54-102.06-111.37-190.66-54.75-8.95,5.72-17.47,13.21-25.55,21.86-15.15,16.21-45.05,45.03-58.77,36.12-15.91-7.32-19.67-129.41-19.67-129.41h0s-2.89,122.08-18.8,129.41c-13.72,8.91-43.62-19.9-58.77-36.12-8.09-8.65-16.6-16.14-25.55-21.86-88.6-56.62-164.75-6.79-190.66,54.75-8.49,20.18-9.17,47.01-1.42,68.02Z"/>
  <path class="cls-1" d="M349.78,283.95c18.03,73.89,84.17,128.43,142.64,42.45,18.12-28.78,35.74-83.83,46.03-82.58,6.75,2.1,9.92,39.19,11.39,92.8l-.03,14.8c.06-2.85.12-5.65.19-8.42.07,2.77.13,5.57.19,8.42l-.03-14.8c1.47-53.61,4.64-90.7,11.39-92.8,10.28-1.25,27.91,53.8,46.03,82.58,58.47,85.98,124.61,31.44,142.64-42.45,5.25-21.53,4.79-49.04-.96-69.72-17.55-63.07-69.12-114.14-129.13-56.11-6.06,5.86-11.83,13.54-17.31,22.4-10.26,16.62-30.51,46.15-39.8,37.02-10.77-7.51-13.32-132.63-13.32-132.63h0s-1.96,125.12-12.73,132.63c-9.29,9.13-29.54-20.4-39.8-37.02-5.48-8.87-11.24-16.54-17.31-22.4-60.01-58.03-111.58-6.96-129.13,56.11-5.75,20.68-6.21,48.18-.96,69.72Z"/>
</svg>