<?xml version="1.0" encoding="UTF-8"?>
<svg id="_레이어_2" data-name="레이어 2" xmlns="http://www.w3.org/2000/svg" viewBox="0 0 480 300">
  <defs>
    <style>
      .cls-1 {
        stroke-width: 0px;
      }
    </style>
  </defs>
  <g id="_레이어_1-2" data-name=" 레이어 1-2">
    <g>
      <path class="cls-1" d="M249.83,173.53l-.65,3.6c.15-.68.32-1.36.48-2.02-.08.68-.15,1.37-.24,2.07l.62-3.61c3.21-12.88,6.77-21.56,11.06-21.32,6.44.82,15.03,16.14,25.06,25.13,32.65,27.32,76.1,21.3,90.47,5.31,4.19-4.66,5.08-11.4,2.4-17.06-8.2-17.27-38.06-35.34-77.85-27.8-4.03.76-7.93,1.99-11.71,3.55-7.09,2.91-20.94,7.89-26.33,4.64-6.38-3-2.6-33.72-2.6-33.72h0"/>
      <path class="cls-1" d="M242.07,217.72l-.73,4.07c.16-.78.33-1.54.48-2.3-.11.77-.21,1.54-.33,2.33l.7-4.07c3.21-14.62,6.32-24.58,9.23-24.66,4.33.41,9,16.83,15.13,26.05,20.14,27.9,50.28,17.77,61.34-1.21,3.22-5.53,4.37-13.12,2.98-19.22-4.23-18.61-23.2-36.42-50.96-24.88-2.8,1.17-5.58,2.85-8.28,4.88-5.07,3.82-14.91,10.44-18.33,7.25-4.11-2.85.88-37.41.88-37.41h0"/>
      <path class="cls-1" d="M256.77,134.49l-.75,4.17c.15-.8.32-1.58.47-2.36-.12.78-.24,1.57-.36,2.38l.73-4.17c3.08-15.02,5.81-25.31,7.82-25.56,2.96.15,5.19,16.53,8.86,25.54,12.2,27.11,33.52,15.03,42.26-4.87,2.55-5.81,3.78-13.57,3.19-19.67-1.8-18.63-13.79-35.57-33.56-22.2-2,1.35-4,3.22-5.98,5.44-3.72,4.17-10.88,11.48-13.04,8.45-2.66-2.65,2.84-38,2.84-38h0"/>
    </g>
    <g>
      <path class="cls-1" d="M230.17,173.53l.65,3.6c-.15-.68-.32-1.36-.48-2.02.08.68.15,1.37.24,2.07l-.62-3.61c-3.21-12.88-6.77-21.56-11.06-21.32-6.44.82-15.03,16.14-25.06,25.13-32.65,27.32-76.1,21.3-90.47,5.31-4.19-4.66-5.08-11.4-2.4-17.06,8.2-17.27,38.06-35.34,77.85-27.8,4.03.76,7.93,1.99,11.71,3.55,7.09,2.91,20.94,7.89,26.33,4.64,6.38-3,2.6-33.72,2.6-33.72h0"/>
      <path class="cls-1" d="M237.92,217.72l.73,4.07c-.16-.78-.33-1.54-.48-2.3.11.77.21,1.54.33,2.33l-.7-4.07c-3.21-14.62-6.32-24.58-9.23-24.66-4.33.41-9,16.83-15.13,26.05-20.14,27.9-50.28,17.77-61.34-1.21-3.22-5.53-4.37-13.12-2.98-19.22,4.23-18.61,23.2-36.42,50.96-24.88,2.8,1.17,5.58,2.85,8.28,4.88,5.07,3.82,14.91,10.44,18.33,7.25,4.11-2.85-.88-37.41-.88-37.41h0"/>
      <path class="cls-1" d="M223.23,134.49l.75,4.17c-.15-.8-.32-1.58-.47-2.36.12.78.24,1.57.36,2.38l-.73-4.17c-3.08-15.02-5.81-25.31-7.82-25.56-2.96.15-5.19,16.53-8.86,25.54-12.2,27.11-33.52,15.03-42.26-4.87-2.55-5.81-3.78-13.57-3.19-19.67,1.8-18.63,13.79-35.57,33.56-22.2,2,1.35,4,3.22,5.98,5.44,3.72,4.17,10.88,11.48,13.04,8.45,2.66-2.64-2.83-38-2.83-38h0"/>
    </g>
  </g>
</svg>