<?xml version="1.0" encoding="UTF-8"?>
<svg id="_레이어_2" data-name="레이어 2" xmlns="http://www.w3.org/2000/svg" viewBox="0 0 1100 750">
  <defs>
    <style>
      .cls-1 {
        stroke: #000;
        stroke-miterlimit: 10;
        stroke-width: 1.34px;
      }
    </style>
  </defs>
  <path class="cls-1" d="M838.15,304c-8.38-17.73-16.83-29.04-20.97-34.07,1.6-16.3,4-80.02-47.2-136.55-46.61-51.45-102.46-52.17-120.65-50.84-9.09-16.19-41.32-63.18-108.92-63.18,0,0,0,0,0,0-69.97,0-94.57,37.63-101.58,52.59-17.09.1-66.05,5.11-106.88,55.09-24.57,30.07-32.6,60.13-35.01,80.04-1.69,14.02-.94,25.12-.15,31.43-14.96,10.49-57.83,48.27-57.83,136.5,0,65.88,26.23,101.93,34.98,112.12-1.48,17.68-4.56,91.68,40.79,140.65,40.88,44.13,92.42,49.04,107.99,49.47,9.5,12.8,44.77,52.39,118.01,53.38.85.01,1.68.02,2.51.02,59.81,0,87.5-29.25,96.01-40.63,17.48.8,77.28.43,117.52-38.1,52.53-50.3,56.69-109.23,56.81-124.95,10.78-10.44,47.48-50.63,47.48-113.38,0-50.53-12.45-87.48-22.9-109.58Z"/>
</svg>