<?xml version="1.0" encoding="UTF-8"?>
<svg id="_레이어_2" data-name="레이어 2" xmlns="http://www.w3.org/2000/svg" viewBox="0 0 1100 750">
  <defs>
    <style>
      .cls-1 {
        stroke-width: 0px;
      }
    </style>
  </defs>
  <path class="cls-1" d="M118.85,393.43c5.11,57.38,32.91,113.09,34.56,116.32.35.69.74,1.47,1.31,2.54,22.94,43.61,56.14,69.58,70.29,80.42,8.86,6.79,37.46,27.84,79.75,43.3,17.42,6.37,32.52,10.09,41.9,12.37,32.32,7.87,46.57,7.64,71.64,12.37,22.73,4.29,26.08,7.32,72.99,22.27,54.68,17.43,82.02,26.14,110.84,30.93,15.22,2.53,30.14,4.31,45.96,5.06,0,0,28.25,1.34,54.06-1.35,97.73-10.21,162.35-78.79,200.98-118.05,16.19-16.45,26.76-27.53,38.46-45.49,33.82-51.92,36.96-101.95,39.31-148.6,1.85-36.82,4.05-80.76-13.21-135.63-7.68-24.42-29.95-92.03-97.93-152.24-25-22.15-91.23-80.8-186.32-86.48-53.72-3.21-101.69,9.39-129.96,17.18-39.57,10.91-31.25,14.23-69.52,24.18-55.06,14.31-83.12,10.25-146.15,30.8-5.88,1.92-15.23,4.88-26.29,9.37-34.47,13.99-98.13,38.89-143.28,98.97,0,0-58.62,78.01-49.38,181.76Z"/>
</svg>