<?xml version="1.0" encoding="UTF-8"?>
<svg id="_레이어_2" data-name="레이어 2" xmlns="http://www.w3.org/2000/svg" viewBox="0 0 480 300">
  <defs>
    <style>
      .cls-1 {
        stroke-width: 0px;
      }
    </style>
  </defs>
  <path class="cls-1" d="M227.15,236.79l6.95-35.17-33.22-26.32,39.54-48.73-58.78-59.4c-10.82,4.35-18.81,5.88-32.73,13.55-1.56.86-4.04,2.2-6.93,4.06-8.99,5.81-25.65,16.28-35.18,35.69,0,0-12.37,25.21-4.18,54.05,4.53,15.95,15.39,30.2,16.03,31.03.14.18.29.38.51.65,8.83,11.09,19.62,16.65,24.2,18.95,2.87,1.44,12.09,5.86,24.88,7.95,5.27.86,9.74,1.1,12.51,1.24,9.56.48,13.58-.35,20.92-.36,6.66-.01,7.77.66,21.83,2.37,1.26.15,2.47.3,3.64.44Z"/>
  <path class="cls-1" d="M378.04,127.26c-1.6-7.19-6.32-27.13-24.32-46.07-6.62-6.97-24.16-25.42-51.29-29.4-15.32-2.25-29.39.18-37.69,1.72-11.62,2.15-9.31,3.31-20.53,5.22-2.7.46-5.17.79-7.5,1.04l40.51,73.09-51.25,36.21,24.86,34.33-16.21,31.97c13.04,5.42,20.12,8.27,27.63,10.2,4.3,1.1,8.54,1.98,13.05,2.59,0,0,8.07,1.08,15.53.95,28.28-.51,48.5-18.58,60.54-28.89,5.05-4.32,8.35-7.23,12.15-12.1,10.98-14.05,13.12-28.32,14.94-41.64,1.44-10.51,3.16-23.06-.44-39.22Z"/>
</svg>