<?xml version="1.0" encoding="UTF-8"?>
<svg id="_레이어_2" data-name="레이어 2" xmlns="http://www.w3.org/2000/svg" viewBox="0 0 269.56 32.8">
  <defs>
    <style>
      .cls-1 {
        fill: #231815;
      }

      .cls-1, .cls-2 {
        stroke-width: 0px;
      }

      .cls-2 {
        fill: #fff;
      }
    </style>
  </defs>
  <g id="_레이어_1-2" data-name="레이어 1">
    <g>
      <g>
        <polygon class="cls-1" points=".75 31.41 .75 1.31 22.73 1.31 22.73 7.73 8.05 7.73 8.05 13.11 20.49 13.11 20.49 19.57 8.05 19.57 8.05 31.41 .75 31.41"/>
        <path class="cls-2" d="M21.98,2.06v4.92H7.3v6.88h12.44v4.96H7.3v11.84H1.5V2.06h20.48M23.48.56H0v31.6h8.8v-11.84h12.44v-7.96h-12.44v-3.88h14.68V.56h0Z"/>
      </g>
      <g>
        <path class="cls-1" d="M37.02,32.05c-4.36,0-7.92-1.49-10.58-4.43-2.64-2.92-3.97-6.68-3.97-11.2s1.34-8.29,3.97-11.22c2.66-2.95,6.21-4.45,10.58-4.45s7.92,1.5,10.56,4.45c2.62,2.93,3.95,6.7,3.95,11.22s-1.33,8.29-3.95,11.2c-2.64,2.94-6.19,4.43-10.56,4.43ZM37.06,7.01c-2.3,0-4.02.83-5.25,2.53-1.27,1.75-1.92,4.07-1.92,6.88s.65,5.09,1.92,6.84c1.23,1.7,2.95,2.53,5.25,2.53s3.99-.82,5.19-2.5c1.24-1.74,1.86-4.05,1.86-6.87s-.63-5.13-1.86-6.89c-1.2-1.7-2.89-2.52-5.19-2.52Z"/>
        <path class="cls-2" d="M37.02,1.5c4.16,0,7.49,1.4,10,4.2,2.51,2.8,3.76,6.37,3.76,10.72s-1.25,7.91-3.76,10.7c-2.51,2.79-5.84,4.18-10,4.18s-7.5-1.39-10.02-4.18c-2.52-2.79-3.78-6.35-3.78-10.7s1.26-7.92,3.78-10.72c2.52-2.8,5.86-4.2,10.02-4.2M37.06,26.54c2.53,0,4.47-.94,5.8-2.82,1.33-1.88,2-4.31,2-7.3s-.67-5.43-2-7.32c-1.33-1.89-3.27-2.84-5.8-2.84s-4.49.95-5.86,2.84c-1.37,1.89-2.06,4.33-2.06,7.32s.69,5.39,2.06,7.28c1.37,1.89,3.33,2.84,5.86,2.84M37.02,0c-4.58,0-8.33,1.58-11.13,4.7-2.76,3.07-4.17,7.01-4.17,11.72s1.4,8.65,4.17,11.71c2.8,3.1,6.55,4.67,11.13,4.67s8.32-1.57,11.12-4.68c2.75-3.06,4.14-6.99,4.14-11.7s-1.39-8.65-4.14-11.72c-2.79-3.12-6.53-4.7-11.12-4.7h0ZM37.06,25.04c-2.04,0-3.56-.73-4.65-2.22-1.18-1.62-1.77-3.78-1.77-6.4s.6-4.82,1.77-6.44c1.08-1.49,2.6-2.22,4.65-2.22s3.53.72,4.57,2.2c1.15,1.63,1.73,3.8,1.73,6.46s-.58,4.82-1.72,6.43c-1.04,1.47-2.54,2.19-4.58,2.19h0Z"/>
      </g>
      <g>
        <path class="cls-1" d="M70.89,31.41l-.16-.08c-.25-.12-.45-.33-.61-.61-.12-.22-.21-.49-.28-.83-.06-.28-.1-.57-.15-.86-.04-.29-.08-.66-.12-1.12-.04-.44-.07-.83-.1-1.17-.03-.33-.17-2.29-.2-2.61-.21-2.87-1.75-4.2-4.85-4.2h-3.93v11.48h-7.3V1.31h13.87c2.92,0,5.32.8,7.15,2.38,1.86,1.61,2.8,3.74,2.8,6.33,0,3.37-1.37,5.72-4.08,7.02.71.39,1.29.88,1.74,1.46.76.98,1.25,2.4,1.46,4.24.06.66.34,4.34.34,4.34.04.49.09.99.16,1.48.07.54.16.83.23.98.05.13.09.16.09.16l.45.19-.03.48v1.03h-6.48ZM65.9,13.95c1.32,0,2.33-.3,3-.89.65-.58.97-1.32.97-2.28s-.3-1.78-.93-2.38c-.63-.6-1.59-.91-2.88-.91h-5.57v6.46h5.41Z"/>
        <path class="cls-2" d="M67.06,2.06c2.75,0,4.97.73,6.66,2.2,1.69,1.47,2.54,3.39,2.54,5.76,0,3.65-1.75,5.96-5.24,6.92v.12c1.36.4,2.38,1.03,3.06,1.9.68.87,1.11,2.15,1.3,3.86.05.64.11,1.39.18,2.26.07.87.12,1.55.16,2.06.04.51.09,1.01.16,1.52.07.51.16.9.28,1.18.12.28.27.46.46.54v.28h-5.56c-.11-.05-.2-.15-.28-.3s-.15-.35-.2-.62c-.05-.27-.1-.54-.14-.82-.04-.28-.08-.64-.12-1.08-.04-.44-.07-.83-.1-1.16-.03-.33-.06-.77-.1-1.32s-.07-.98-.1-1.3c-.24-3.25-2.11-4.88-5.6-4.88h-4.68v11.48h-5.8V2.06h13.12M59.74,14.7h6.16c1.52,0,2.69-.36,3.5-1.08.81-.72,1.22-1.67,1.22-2.84s-.39-2.17-1.16-2.92c-.77-.75-1.91-1.12-3.4-1.12h-6.32v7.96M67.06.56h-14.62v31.6h8.8v-11.48h3.18c2.7,0,3.92,1.04,4.1,3.49.03.33.06.76.1,1.3.04.55.07,1,.1,1.33.03.33.06.73.1,1.17.04.47.09.86.13,1.16.04.31.09.61.15.9.08.41.2.76.35,1.04.23.42.55.74.94.93l.31.15h7.41v-2.77l-.62-.27c-.04-.13-.09-.33-.13-.66-.06-.49-.11-.97-.15-1.44l-.16-2.06c-.07-.87-.13-1.63-.18-2.27-.22-2.05-.75-3.56-1.61-4.66-.27-.34-.58-.66-.92-.94,2.25-1.51,3.42-3.9,3.42-7.07,0-2.82-1.03-5.14-3.06-6.89-1.97-1.7-4.54-2.57-7.64-2.57h0ZM61.24,8.24h4.82c1.08,0,1.88.24,2.36.7.48.46.7,1.05.7,1.84,0,.74-.23,1.29-.71,1.72-.53.47-1.37.7-2.51.7h-4.66v-4.96h0Z"/>
      </g>
      <g>
        <polygon class="cls-1" points="85.95 31.41 85.95 7.69 77.35 7.69 77.35 1.31 101.85 1.31 101.85 7.69 93.25 7.69 93.25 31.41 85.95 31.41"/>
        <path class="cls-2" d="M101.1,2.06v4.88h-8.6v23.72h-5.8V6.94h-8.6V2.06h23M102.6.56h-26v7.88h8.6v23.72h8.8V8.44h8.6V.56h0Z"/>
      </g>
      <g>
        <path class="cls-1" d="M115.06,31.89c-3.85,0-6.84-.9-8.89-2.68-2.08-1.81-3.14-4.42-3.14-7.75V1.31h7.3v20.15c0,2.93,1.46,4.29,4.61,4.29,1.57,0,2.75-.39,3.5-1.17.77-.79,1.15-1.84,1.15-3.2V1.31h7.3v20.15c0,3.3-1.03,5.9-3.07,7.72-2.01,1.8-4.96,2.71-8.76,2.71Z"/>
        <path class="cls-2" d="M126.14,2.06v19.4c0,3.09-.94,5.48-2.82,7.16-1.88,1.68-4.63,2.52-8.26,2.52s-6.48-.83-8.4-2.5c-1.92-1.67-2.88-4.06-2.88-7.18V2.06h5.8v19.4c0,3.36,1.79,5.04,5.36,5.04,1.79,0,3.13-.47,4.04-1.4.91-.93,1.36-2.17,1.36-3.72V2.06h5.8M127.64.56h-8.8v20.82c0,1.15-.31,2.03-.94,2.68-.61.63-1.61.94-2.96.94-2.74,0-3.86-1.03-3.86-3.54V.56h-8.8v20.9c0,3.56,1.14,6.36,3.4,8.31,2.19,1.9,5.35,2.87,9.38,2.87s7.1-.98,9.26-2.9c2.2-1.97,3.32-4.75,3.32-8.28V.56h0Z"/>
      </g>
      <g>
        <path class="cls-1" d="M147.32,31.41l-9.98-16.16c-.18-.31-.38-.66-.6-1.06.02.62.02,1.19.02,1.7v15.51h-7.22V1.31h7.06l9.74,16.33c.17.29.35.62.55.99-.01-.56-.02-1.08-.02-1.56V1.31h7.22v30.1h-6.77Z"/>
        <path class="cls-2" d="M153.34,2.06v28.6h-5.6l-9.76-15.8c-.27-.45-.57-1.01-.92-1.66s-.61-1.21-.8-1.66l-.32-.64h-.08c.11,2,.16,3.67.16,5v14.76h-5.72V2.06h5.88l9.52,15.96c.27.45.57,1.01.9,1.68.33.67.59,1.23.78,1.68l.32.64h.08c-.11-1.97-.16-3.63-.16-4.96V2.06h5.72M154.84.56h-8.72v15.24l-8.65-14.5-.44-.73h-8.23v31.6h8.72v-15.19l8.94,14.48.44.71h7.94V.56h0Z"/>
      </g>
      <g>
        <polygon class="cls-1" points="156.99 31.41 156.99 1.31 179.53 1.31 179.53 7.69 164.29 7.69 164.29 12.59 177.65 12.59 177.65 18.85 164.29 18.85 164.29 25.07 179.65 25.07 179.65 31.41 156.99 31.41"/>
        <path class="cls-2" d="M178.78,2.06v4.88h-15.24v6.4h13.36v4.76h-13.36v7.72h15.36v4.84h-21.16V2.06h21.04M180.28.56h-24.04v31.6h24.16v-7.84h-15.36v-4.72h13.36v-7.76h-13.36v-3.4h15.24V.56h0Z"/>
      </g>
      <g>
        <polygon class="cls-1" points="188.47 31.41 188.47 1.31 211.01 1.31 211.01 7.69 195.77 7.69 195.77 12.59 209.13 12.59 209.13 18.85 195.77 18.85 195.77 25.07 211.13 25.07 211.13 31.41 188.47 31.41"/>
        <path class="cls-2" d="M210.26,2.06v4.88h-15.24v6.4h13.36v4.76h-13.36v7.72h15.36v4.84h-21.16V2.06h21.04M211.76.56h-24.04v31.6h24.16v-7.84h-15.36v-4.72h13.36v-7.76h-13.36v-3.4h15.24V.56h0Z"/>
      </g>
      <g>
        <path class="cls-1" d="M226.02,32.01c-4.39,0-7.95-1.48-10.6-4.41-2.6-2.91-3.91-6.65-3.91-11.14,0-5.1,1.66-9.22,4.92-12.23,2.54-2.31,5.8-3.48,9.71-3.48,3.66,0,6.64.93,8.86,2.77,2.23,1.84,3.61,4.34,4.12,7.42l.14.87h-7.16l-.14-.57c-.31-1.29-.93-2.28-1.9-3.05-.95-.76-2.24-1.14-3.81-1.14-2.36,0-4.12.83-5.38,2.54-1.29,1.75-1.95,4.07-1.95,6.87s.68,5.07,2.02,6.82c1.32,1.71,3.02,2.55,5.23,2.55,1.95,0,3.51-.58,4.76-1.77,1.07-1.02,1.67-2.13,1.81-3.37h-6.85v-5.98h13.54v16.7h-5.82l-.13-2.54c-1.85,2.08-4.35,3.14-7.48,3.14Z"/>
        <path class="cls-2" d="M226.14,1.5c3.49,0,6.29.87,8.38,2.6s3.38,4.05,3.86,6.96h-5.68c-.35-1.44-1.07-2.59-2.16-3.46-1.09-.87-2.52-1.3-4.28-1.3-2.59,0-4.58.95-5.98,2.84-1.4,1.89-2.1,4.33-2.1,7.32s.73,5.39,2.18,7.28,3.39,2.84,5.82,2.84c2.13,0,3.89-.66,5.28-1.98,1.39-1.32,2.08-2.82,2.08-4.5v-.16h-6.88v-4.48h12.04v15.2h-4.36l-.2-3.84h-.08c-1.76,2.96-4.44,4.44-8.04,4.44-4.19,0-7.53-1.39-10.04-4.16-2.48-2.77-3.72-6.32-3.72-10.64,0-4.91,1.56-8.8,4.68-11.68,2.4-2.19,5.47-3.28,9.2-3.28M226.14,0c-4.1,0-7.54,1.24-10.21,3.67-3.43,3.17-5.17,7.47-5.17,12.79,0,4.68,1.38,8.6,4.1,11.64,2.8,3.09,6.55,4.66,11.16,4.66,2.71,0,4.99-.74,6.81-2.21v.19s.08,1.42.08,1.42h7.28V13.96h-15.04v7.48h6.66c-.25.73-.71,1.42-1.4,2.07-1.11,1.05-2.5,1.57-4.25,1.57-1.95,0-3.47-.74-4.63-2.25-1.24-1.62-1.87-3.76-1.87-6.37s.61-4.81,1.81-6.43c1.11-1.5,2.67-2.23,4.77-2.23,1.42,0,2.52.32,3.35.98.83.66,1.36,1.52,1.63,2.64l.28,1.15h8.63l-.29-1.74c-.54-3.26-2.01-5.91-4.38-7.87-2.36-1.95-5.5-2.95-9.34-2.95h0Z"/>
      </g>
      <g>
        <path class="cls-1" d="M255.38,32.01c-4.39,0-7.95-1.48-10.6-4.41-2.6-2.91-3.91-6.65-3.91-11.14,0-5.1,1.66-9.22,4.92-12.23,2.54-2.31,5.8-3.48,9.71-3.48,3.66,0,6.64.93,8.86,2.77,2.23,1.84,3.61,4.34,4.12,7.42l.14.87h-7.16l-.14-.57c-.31-1.29-.93-2.28-1.9-3.05-.95-.76-2.24-1.14-3.81-1.14-2.36,0-4.12.83-5.38,2.54-1.29,1.75-1.95,4.07-1.95,6.87s.68,5.07,2.02,6.82c1.32,1.71,3.02,2.55,5.23,2.55,1.95,0,3.51-.58,4.76-1.77,1.07-1.02,1.67-2.13,1.81-3.37h-6.85v-5.98h13.54v16.7h-5.82l-.13-2.54c-1.85,2.08-4.35,3.14-7.48,3.14Z"/>
        <path class="cls-2" d="M255.5,1.5c3.49,0,6.29.87,8.38,2.6s3.38,4.05,3.86,6.96h-5.68c-.35-1.44-1.07-2.59-2.16-3.46-1.09-.87-2.52-1.3-4.28-1.3-2.59,0-4.58.95-5.98,2.84-1.4,1.89-2.1,4.33-2.1,7.32s.73,5.39,2.18,7.28,3.39,2.84,5.82,2.84c2.13,0,3.89-.66,5.28-1.98,1.39-1.32,2.08-2.82,2.08-4.5v-.16h-6.88v-4.48h12.04v15.2h-4.36l-.2-3.84h-.08c-1.76,2.96-4.44,4.44-8.04,4.44-4.19,0-7.53-1.39-10.04-4.16-2.48-2.77-3.72-6.32-3.72-10.64,0-4.91,1.56-8.8,4.68-11.68,2.4-2.19,5.47-3.28,9.2-3.28M255.5,0c-4.1,0-7.54,1.24-10.21,3.67-3.43,3.17-5.17,7.47-5.17,12.79,0,4.68,1.38,8.6,4.1,11.64,2.8,3.09,6.55,4.66,11.16,4.66,2.71,0,4.99-.74,6.81-2.21v.19s.08,1.42.08,1.42h7.28V13.96h-15.04v7.48h6.66c-.25.73-.71,1.42-1.4,2.07-1.11,1.05-2.5,1.57-4.25,1.57-1.95,0-3.47-.74-4.63-2.25-1.24-1.62-1.87-3.76-1.87-6.37s.61-4.81,1.81-6.43c1.11-1.5,2.67-2.23,4.77-2.23,1.42,0,2.52.32,3.35.98.83.66,1.36,1.52,1.63,2.64l.28,1.15h8.63l-.29-1.74c-.54-3.26-2.01-5.91-4.38-7.87-2.36-1.95-5.5-2.95-9.34-2.95h0Z"/>
      </g>
    </g>
  </g>
</svg>